TITLE ""
FILE "LR_black_phrase_E_B09.mp3" MP3
  TRACK 01 AUDIO
    TITLE "LR_black_phrase_E_B09_001"
    INDEX 01 00:00:00
  TRACK 02 AUDIO
    TITLE "LR_black_phrase_E_B09_002"
    INDEX 01 00:00:14
  TRACK 03 AUDIO
    TITLE "LR_black_phrase_E_B09_003"
    INDEX 01 00:01:22
  TRACK 04 AUDIO
    TITLE "LR_black_phrase_E_B09_004"
    INDEX 01 00:01:53
  TRACK 05 AUDIO
    TITLE "LR_black_phrase_E_B09_005"
    INDEX 01 00:03:75
  TRACK 06 AUDIO
    TITLE "LR_black_phrase_E_B09_006"
    INDEX 01 00:04:57
  TRACK 07 AUDIO
    TITLE "LR_black_phrase_E_B09_007"
    INDEX 01 00:07:03
  TRACK 08 AUDIO
    TITLE "LR_black_phrase_E_B09_008"
    INDEX 01 00:08:08
  TRACK 09 AUDIO
    TITLE "LR_black_phrase_E_B09_009"
    INDEX 01 00:09:27
  TRACK 10 AUDIO
    TITLE "LR_black_phrase_E_B09_010"
    INDEX 01 00:09:56
  TRACK 11 AUDIO
    TITLE "LR_black_phrase_E_B09_011"
    INDEX 01 00:12:29
  TRACK 12 AUDIO
    TITLE "LR_black_phrase_E_B09_012"
    INDEX 01 00:13:07
  TRACK 13 AUDIO
    TITLE "LR_black_phrase_E_B09_013"
    INDEX 01 00:15:51
  TRACK 14 AUDIO
    TITLE "LR_black_phrase_E_B09_014"
    INDEX 01 00:16:56
  TRACK 15 AUDIO
    TITLE "LR_black_phrase_E_B09_015"
    INDEX 01 00:17:62
  TRACK 16 AUDIO
    TITLE "LR_black_phrase_E_B09_016"
    INDEX 01 00:18:16
  TRACK 17 AUDIO
    TITLE "LR_black_phrase_E_B09_017"
    INDEX 01 00:19:70
  TRACK 18 AUDIO
    TITLE "LR_black_phrase_E_B09_018"
    INDEX 01 00:20:52
  TRACK 19 AUDIO
    TITLE "LR_black_phrase_E_B09_019"
    INDEX 01 00:22:30
  TRACK 20 AUDIO
    TITLE "LR_black_phrase_E_B09_020"
    INDEX 01 00:23:29
  TRACK 21 AUDIO
    TITLE "LR_black_phrase_E_B09_021"
    INDEX 01 00:24:44
  TRACK 22 AUDIO
    TITLE "LR_black_phrase_E_B09_022"
    INDEX 01 00:24:68
  TRACK 23 AUDIO
    TITLE "LR_black_phrase_E_B09_023"
    INDEX 01 00:26:41
  TRACK 24 AUDIO
    TITLE "LR_black_phrase_E_B09_024"
    INDEX 01 00:27:17
  TRACK 25 AUDIO
    TITLE "LR_black_phrase_E_B09_025"
    INDEX 01 00:28:67
  TRACK 26 AUDIO
    TITLE "LR_black_phrase_E_B09_026"
    INDEX 01 00:29:71
  TRACK 27 AUDIO
    TITLE "LR_black_phrase_E_B09_027"
    INDEX 01 00:31:11
  TRACK 28 AUDIO
    TITLE "LR_black_phrase_E_B09_028"
    INDEX 01 00:31:30
  TRACK 29 AUDIO
    TITLE "LR_black_phrase_E_B09_029"
    INDEX 01 00:33:22
  TRACK 30 AUDIO
    TITLE "LR_black_phrase_E_B09_030"
    INDEX 01 00:33:65
  TRACK 31 AUDIO
    TITLE "LR_black_phrase_E_B09_031"
    INDEX 01 00:35:56
  TRACK 32 AUDIO
    TITLE "LR_black_phrase_E_B09_032"
    INDEX 01 00:36:51
  TRACK 33 AUDIO
    TITLE "LR_black_phrase_E_B09_033"
    INDEX 01 00:38:01
  TRACK 34 AUDIO
    TITLE "LR_black_phrase_E_B09_034"
    INDEX 01 00:38:19
  TRACK 35 AUDIO
    TITLE "LR_black_phrase_E_B09_035"
    INDEX 01 00:40:12
  TRACK 36 AUDIO
    TITLE "LR_black_phrase_E_B09_036"
    INDEX 01 00:40:55
  TRACK 37 AUDIO
    TITLE "LR_black_phrase_E_B09_037"
    INDEX 01 00:42:48
  TRACK 38 AUDIO
    TITLE "LR_black_phrase_E_B09_038"
    INDEX 01 00:43:47
  TRACK 39 AUDIO
    TITLE "LR_black_phrase_E_B09_039"
    INDEX 01 00:44:60
  TRACK 40 AUDIO
    TITLE "LR_black_phrase_E_B09_040"
    INDEX 01 00:45:17
  TRACK 41 AUDIO
    TITLE "LR_black_phrase_E_B09_041"
    INDEX 01 00:48:21
  TRACK 42 AUDIO
    TITLE "LR_black_phrase_E_B09_042"
    INDEX 01 00:48:74
  TRACK 43 AUDIO
    TITLE "LR_black_phrase_E_B09_043"
    INDEX 01 00:52:01
  TRACK 44 AUDIO
    TITLE "LR_black_phrase_E_B09_044"
    INDEX 01 00:53:05
  TRACK 45 AUDIO
    TITLE "LR_black_phrase_E_B09_045"
    INDEX 01 00:54:20
  TRACK 46 AUDIO
    TITLE "LR_black_phrase_E_B09_046"
    INDEX 01 00:54:49
  TRACK 47 AUDIO
    TITLE "LR_black_phrase_E_B09_047"
    INDEX 01 00:57:10
  TRACK 48 AUDIO
    TITLE "LR_black_phrase_E_B09_048"
    INDEX 01 00:57:65
  TRACK 49 AUDIO
    TITLE "LR_black_phrase_E_B09_049"
    INDEX 01 01:00:26
  TRACK 50 AUDIO
    TITLE "LR_black_phrase_E_B09_050"
    INDEX 01 01:01:30
  TRACK 51 AUDIO
    TITLE "LR_black_phrase_E_B09_051"
    INDEX 01 01:02:51
  TRACK 52 AUDIO
    TITLE "LR_black_phrase_E_B09_052"
    INDEX 01 01:03:07
  TRACK 53 AUDIO
    TITLE "LR_black_phrase_E_B09_053"
    INDEX 01 01:05:70
  TRACK 54 AUDIO
    TITLE "LR_black_phrase_E_B09_054"
    INDEX 01 01:06:50
  TRACK 55 AUDIO
    TITLE "LR_black_phrase_E_B09_055"
    INDEX 01 01:09:39
  TRACK 56 AUDIO
    TITLE "LR_black_phrase_E_B09_056"
    INDEX 01 01:10:36
  TRACK 57 AUDIO
    TITLE "LR_black_phrase_E_B09_057"
    INDEX 01 01:11:44
  TRACK 58 AUDIO
    TITLE "LR_black_phrase_E_B09_058"
    INDEX 01 01:11:69
  TRACK 59 AUDIO
    TITLE "LR_black_phrase_E_B09_059"
    INDEX 01 01:14:13
  TRACK 60 AUDIO
    TITLE "LR_black_phrase_E_B09_060"
    INDEX 01 01:14:62
  TRACK 61 AUDIO
    TITLE "LR_black_phrase_E_B09_061"
    INDEX 01 01:17:05
  TRACK 62 AUDIO
    TITLE "LR_black_phrase_E_B09_062"
    INDEX 01 01:18:01
  TRACK 63 AUDIO
    TITLE "LR_black_phrase_E_B09_063"
    INDEX 01 01:19:27
  TRACK 64 AUDIO
    TITLE "LR_black_phrase_E_B09_064"
    INDEX 01 01:19:47
  TRACK 65 AUDIO
    TITLE "LR_black_phrase_E_B09_065"
    INDEX 01 01:21:62
  TRACK 66 AUDIO
    TITLE "LR_black_phrase_E_B09_066"
    INDEX 01 01:22:36
  TRACK 67 AUDIO
    TITLE "LR_black_phrase_E_B09_067"
    INDEX 01 01:24:48
  TRACK 68 AUDIO
    TITLE "LR_black_phrase_E_B09_068"
    INDEX 01 01:25:48
  TRACK 69 AUDIO
    TITLE "LR_black_phrase_E_B09_069"
    INDEX 01 01:27:07
  TRACK 70 AUDIO
    TITLE "LR_black_phrase_E_B09_070"
    INDEX 01 01:27:27
  TRACK 71 AUDIO
    TITLE "LR_black_phrase_E_B09_071"
    INDEX 01 01:29:73
  TRACK 72 AUDIO
    TITLE "LR_black_phrase_E_B09_072"
    INDEX 01 01:30:41
  TRACK 73 AUDIO
    TITLE "LR_black_phrase_E_B09_073"
    INDEX 01 01:33:12
  TRACK 74 AUDIO
    TITLE "LR_black_phrase_E_B09_074"
    INDEX 01 01:34:13
  TRACK 75 AUDIO
    TITLE "LR_black_phrase_E_B09_075"
    INDEX 01 01:35:21
  TRACK 76 AUDIO
    TITLE "LR_black_phrase_E_B09_076"
    INDEX 01 01:35:52
  TRACK 77 AUDIO
    TITLE "LR_black_phrase_E_B09_077"
    INDEX 01 01:37:47
  TRACK 78 AUDIO
    TITLE "LR_black_phrase_E_B09_078"
    INDEX 01 01:38:27
  TRACK 79 AUDIO
    TITLE "LR_black_phrase_E_B09_079"
    INDEX 01 01:40:22
  TRACK 80 AUDIO
    TITLE "LR_black_phrase_E_B09_080"
    INDEX 01 01:41:27
  TRACK 81 AUDIO
    TITLE "LR_black_phrase_E_B09_081"
    INDEX 01 01:42:38
  TRACK 82 AUDIO
    TITLE "LR_black_phrase_E_B09_082"
    INDEX 01 01:42:70
  TRACK 83 AUDIO
    TITLE "LR_black_phrase_E_B09_083"
    INDEX 01 01:46:24
  TRACK 84 AUDIO
    TITLE "LR_black_phrase_E_B09_084"
    INDEX 01 01:47:04
  TRACK 85 AUDIO
    TITLE "LR_black_phrase_E_B09_085"
    INDEX 01 01:50:36
  TRACK 86 AUDIO
    TITLE "LR_black_phrase_E_B09_086"
    INDEX 01 01:51:41
  TRACK 87 AUDIO
    TITLE "LR_black_phrase_E_B09_087"
    INDEX 01 01:52:49
  TRACK 88 AUDIO
    TITLE "LR_black_phrase_E_B09_088"
    INDEX 01 01:52:74
  TRACK 89 AUDIO
    TITLE "LR_black_phrase_E_B09_089"
    INDEX 01 01:55:02
  TRACK 90 AUDIO
    TITLE "LR_black_phrase_E_B09_090"
    INDEX 01 01:55:55
  TRACK 91 AUDIO
    TITLE "LR_black_phrase_E_B09_091"
    INDEX 01 01:57:58
  TRACK 92 AUDIO
    TITLE "LR_black_phrase_E_B09_092"
    INDEX 01 01:58:55
  TRACK 93 AUDIO
    TITLE "LR_black_phrase_E_B09_093"
    INDEX 01 01:59:74
  TRACK 94 AUDIO
    TITLE "LR_black_phrase_E_B09_094"
    INDEX 01 02:00:30
  TRACK 95 AUDIO
    TITLE "LR_black_phrase_E_B09_095"
    INDEX 01 02:02:53
  TRACK 96 AUDIO
    TITLE "LR_black_phrase_E_B09_096"
    INDEX 01 02:03:27
  TRACK 97 AUDIO
    TITLE "LR_black_phrase_E_B09_097"
    INDEX 01 02:05:49
  TRACK 98 AUDIO
    TITLE "LR_black_phrase_E_B09_098"
    INDEX 01 02:06:45
  TRACK 99 AUDIO
    TITLE "LR_black_phrase_E_B09_099"
    INDEX 01 02:07:64
  TRACK 100 AUDIO
    TITLE "LR_black_phrase_E_B09_100"
    INDEX 01 02:08:10
  TRACK 101 AUDIO
    TITLE "LR_black_phrase_E_B09_101"
    INDEX 01 02:10:01
  TRACK 102 AUDIO
    TITLE "LR_black_phrase_E_B09_102"
    INDEX 01 02:10:52
  TRACK 103 AUDIO
    TITLE "LR_black_phrase_E_B09_103"
    INDEX 01 02:12:43
  TRACK 104 AUDIO
    TITLE "LR_black_phrase_E_B09_104"
    INDEX 01 02:13:45
  TRACK 105 AUDIO
    TITLE "LR_black_phrase_E_B09_105"
    INDEX 01 02:14:54
  TRACK 106 AUDIO
    TITLE "LR_black_phrase_E_B09_106"
    INDEX 01 02:15:04
  TRACK 107 AUDIO
    TITLE "LR_black_phrase_E_B09_107"
    INDEX 01 02:17:31
  TRACK 108 AUDIO
    TITLE "LR_black_phrase_E_B09_108"
    INDEX 01 02:18:09
  TRACK 109 AUDIO
    TITLE "LR_black_phrase_E_B09_109"
    INDEX 01 02:20:37
  TRACK 110 AUDIO
    TITLE "LR_black_phrase_E_B09_110"
    INDEX 01 02:21:42
  TRACK 111 AUDIO
    TITLE "LR_black_phrase_E_B09_111"
    INDEX 01 02:22:52
  TRACK 112 AUDIO
    TITLE "LR_black_phrase_E_B09_112"
    INDEX 01 02:23:08
  TRACK 113 AUDIO
    TITLE "LR_black_phrase_E_B09_113"
    INDEX 01 02:25:11
  TRACK 114 AUDIO
    TITLE "LR_black_phrase_E_B09_114"
    INDEX 01 02:25:69
  TRACK 115 AUDIO
    TITLE "LR_black_phrase_E_B09_115"
    INDEX 01 02:27:70
  TRACK 116 AUDIO
    TITLE "LR_black_phrase_E_B09_116"
    INDEX 01 02:29:03
  TRACK 117 AUDIO
    TITLE "LR_black_phrase_E_B09_117"
    INDEX 01 02:30:35
  TRACK 118 AUDIO
    TITLE "LR_black_phrase_E_B09_118"
    INDEX 01 02:30:65
  TRACK 119 AUDIO
    TITLE "LR_black_phrase_E_B09_119"
    INDEX 01 02:32:72
  TRACK 120 AUDIO
    TITLE "LR_black_phrase_E_B09_120"
    INDEX 01 02:33:49
  TRACK 121 AUDIO
    TITLE "LR_black_phrase_E_B09_121"
    INDEX 01 02:35:56
  TRACK 122 AUDIO
    TITLE "LR_black_phrase_E_B09_122"
    INDEX 01 02:36:60
  TRACK 123 AUDIO
    TITLE "LR_black_phrase_E_B09_123"
    INDEX 01 02:38:21
  TRACK 124 AUDIO
    TITLE "LR_black_phrase_E_B09_124"
    INDEX 01 02:38:54
  TRACK 125 AUDIO
    TITLE "LR_black_phrase_E_B09_125"
    INDEX 01 02:41:02
  TRACK 126 AUDIO
    TITLE "LR_black_phrase_E_B09_126"
    INDEX 01 02:41:55
  TRACK 127 AUDIO
    TITLE "LR_black_phrase_E_B09_127"
    INDEX 01 02:44:04
  TRACK 128 AUDIO
    TITLE "LR_black_phrase_E_B09_128"
    INDEX 01 02:45:02
  TRACK 129 AUDIO
    TITLE "LR_black_phrase_E_B09_129"
    INDEX 01 02:46:25
  TRACK 130 AUDIO
    TITLE "LR_black_phrase_E_B09_130"
    INDEX 01 02:46:44
  TRACK 131 AUDIO
    TITLE "LR_black_phrase_E_B09_131"
    INDEX 01 02:49:13
  TRACK 132 AUDIO
    TITLE "LR_black_phrase_E_B09_132"
    INDEX 01 02:49:60
  TRACK 133 AUDIO
    TITLE "LR_black_phrase_E_B09_133"
    INDEX 01 02:52:29
  TRACK 134 AUDIO
    TITLE "LR_black_phrase_E_B09_134"
    INDEX 01 02:53:25
  TRACK 135 AUDIO
    TITLE "LR_black_phrase_E_B09_135"
    INDEX 01 02:54:20
  TRACK 136 AUDIO
    TITLE "LR_black_phrase_E_B09_136"
    INDEX 01 02:54:48
  TRACK 137 AUDIO
    TITLE "LR_black_phrase_E_B09_137"
    INDEX 01 02:57:15
  TRACK 138 AUDIO
    TITLE "LR_black_phrase_E_B09_138"
    INDEX 01 02:57:68
  TRACK 139 AUDIO
    TITLE "LR_black_phrase_E_B09_139"
    INDEX 01 03:00:36
  TRACK 140 AUDIO
    TITLE "LR_black_phrase_E_B09_140"
    INDEX 01 03:01:32
  TRACK 141 AUDIO
    TITLE "LR_black_phrase_E_B09_141"
    INDEX 01 03:02:59
  TRACK 142 AUDIO
    TITLE "LR_black_phrase_E_B09_142"
    INDEX 01 03:03:05
  TRACK 143 AUDIO
    TITLE "LR_black_phrase_E_B09_143"
    INDEX 01 03:06:21
  TRACK 144 AUDIO
    TITLE "LR_black_phrase_E_B09_144"
    INDEX 01 03:06:66
  TRACK 145 AUDIO
    TITLE "LR_black_phrase_E_B09_145"
    INDEX 01 03:10:09
  TRACK 146 AUDIO
    TITLE "LR_black_phrase_E_B09_146"
    INDEX 01 03:11:09
  TRACK 147 AUDIO
    TITLE "LR_black_phrase_E_B09_147"
    INDEX 01 03:12:32
  TRACK 148 AUDIO
    TITLE "LR_black_phrase_E_B09_148"
    INDEX 01 03:12:49
  TRACK 149 AUDIO
    TITLE "LR_black_phrase_E_B09_149"
    INDEX 01 03:14:39
  TRACK 150 AUDIO
    TITLE "LR_black_phrase_E_B09_150"
    INDEX 01 03:15:09
  TRACK 151 AUDIO
    TITLE "LR_black_phrase_E_B09_151"
    INDEX 01 03:16:71
  TRACK 152 AUDIO
    TITLE "LR_black_phrase_E_B09_152"
    INDEX 01 03:17:74
  TRACK 153 AUDIO
    TITLE "LR_black_phrase_E_B09_153"
    INDEX 01 03:19:20
  TRACK 154 AUDIO
    TITLE "LR_black_phrase_E_B09_154"
    INDEX 01 03:19:52
  TRACK 155 AUDIO
    TITLE "LR_black_phrase_E_B09_155"
    INDEX 01 03:22:15
  TRACK 156 AUDIO
    TITLE "LR_black_phrase_E_B09_156"
    INDEX 01 03:22:69
  TRACK 157 AUDIO
    TITLE "LR_black_phrase_E_B09_157"
    INDEX 01 03:25:34
  TRACK 158 AUDIO
    TITLE "LR_black_phrase_E_B09_158"
    INDEX 01 03:26:40
  TRACK 159 AUDIO
    TITLE "LR_black_phrase_E_B09_159"
    INDEX 01 03:27:73
  TRACK 160 AUDIO
    TITLE "LR_black_phrase_E_B09_160"
    INDEX 01 03:28:27
  TRACK 161 AUDIO
    TITLE "LR_black_phrase_E_B09_161"
    INDEX 01 03:30:47
  TRACK 162 AUDIO
    TITLE "LR_black_phrase_E_B09_162"
    INDEX 01 03:31:27
  TRACK 163 AUDIO
    TITLE "LR_black_phrase_E_B09_163"
    INDEX 01 03:33:46
  TRACK 164 AUDIO
    TITLE "LR_black_phrase_E_B09_164"
    INDEX 01 03:34:47
  TRACK 165 AUDIO
    TITLE "LR_black_phrase_E_B09_165"
    INDEX 01 03:35:51
  TRACK 166 AUDIO
    TITLE "LR_black_phrase_E_B09_166"
    INDEX 01 03:35:70
  TRACK 167 AUDIO
    TITLE "LR_black_phrase_E_B09_167"
    INDEX 01 03:37:53
  TRACK 168 AUDIO
    TITLE "LR_black_phrase_E_B09_168"
    INDEX 01 03:38:21
  TRACK 169 AUDIO
    TITLE "LR_black_phrase_E_B09_169"
    INDEX 01 03:40:05
  TRACK 170 AUDIO
    TITLE "LR_black_phrase_E_B09_170"
    INDEX 01 03:40:75
  TRACK 171 AUDIO
    TITLE "LR_black_phrase_E_B09_171"
    INDEX 01 03:42:39
  TRACK 172 AUDIO
    TITLE "LR_black_phrase_E_B09_172"
    INDEX 01 03:42:60
  TRACK 173 AUDIO
    TITLE "LR_black_phrase_E_B09_173"
    INDEX 01 03:46:39
  TRACK 174 AUDIO
    TITLE "LR_black_phrase_E_B09_174"
    INDEX 01 03:47:09
  TRACK 175 AUDIO
    TITLE "LR_black_phrase_E_B09_175"
    INDEX 01 03:50:64
  TRACK 176 AUDIO
    TITLE "LR_black_phrase_E_B09_176"
    INDEX 01 03:51:59
  TRACK 177 AUDIO
    TITLE "LR_black_phrase_E_B09_177"
    INDEX 01 03:52:67
  TRACK 178 AUDIO
    TITLE "LR_black_phrase_E_B09_178"
    INDEX 01 03:53:21
  TRACK 179 AUDIO
    TITLE "LR_black_phrase_E_B09_179"
    INDEX 01 03:55:22
  TRACK 180 AUDIO
    TITLE "LR_black_phrase_E_B09_180"
    INDEX 01 03:55:71
  TRACK 181 AUDIO
    TITLE "LR_black_phrase_E_B09_181"
    INDEX 01 03:57:74
